<svg xmlns="http://www.w3.org/2000/svg" width="904" height="732" viewBox="0 0 904 732">
  <rect width="904" height="732" fill="#f5eae3"/>
  <defs><symbol id="icon-wellness" viewBox="0 0 256 256">
  <rect width="256" height="256" rx="58" fill="#f5eae3"/>
  <rect x="22" y="22" width="212" height="212" rx="48" fill="#fffaf7" stroke="#d8c8be" stroke-width="8"/>
  <circle cx="128" cy="128" r="42" fill="none" stroke="#806f64" stroke-width="10" stroke-linecap="round" stroke-linejoin="round"/><path d="M128 66v28M128 162v28M66 128h28M162 128h28" fill="none" stroke="#806f64" stroke-width="10" stroke-linecap="round" stroke-linejoin="round"/><circle cx="128" cy="128" r="8" fill="#806f64"/>
</symbol>
<symbol id="icon-audio-pilot" viewBox="0 0 256 256">
  <rect width="256" height="256" rx="58" fill="#f5eae3"/>
  <rect x="22" y="22" width="212" height="212" rx="48" fill="#fffaf7" stroke="#d8c8be" stroke-width="8"/>
  <path d="M75 141v-21a53 53 0 0 1 106 0v21" fill="none" stroke="#806f64" stroke-width="10" stroke-linecap="round" stroke-linejoin="round"/><rect x="61" y="133" width="28" height="46" rx="12" fill="#b77b82"/><rect x="167" y="133" width="28" height="46" rx="12" fill="#b77b82"/><path d="M102 188c17 8 35 8 52 0" fill="none" stroke="#b77b82" stroke-width="8" stroke-linecap="round" stroke-linejoin="round"/>
</symbol>
<symbol id="icon-goals" viewBox="0 0 256 256">
  <rect width="256" height="256" rx="58" fill="#f5eae3"/>
  <rect x="22" y="22" width="212" height="212" rx="48" fill="#fffaf7" stroke="#d8c8be" stroke-width="8"/>
  <circle cx="128" cy="128" r="55" fill="none" stroke="#806f64" stroke-width="10" stroke-linecap="round" stroke-linejoin="round"/><circle cx="128" cy="128" r="24" fill="none" stroke="#9a6f86" stroke-width="10" stroke-linecap="round" stroke-linejoin="round"/><path d="M128 67v-20M128 209v-20M67 128H47M209 128h-20" fill="none" stroke="#806f64" stroke-width="10" stroke-linecap="round" stroke-linejoin="round"/>
</symbol>
<symbol id="icon-dashboard" viewBox="0 0 256 256">
  <rect width="256" height="256" rx="58" fill="#f5eae3"/>
  <rect x="22" y="22" width="212" height="212" rx="48" fill="#fffaf7" stroke="#d8c8be" stroke-width="8"/>
  <rect x="69" y="72" width="45" height="45" rx="12" fill="#b77b82"/><rect x="141" y="72" width="45" height="45" rx="12" fill="none" stroke="#806f64" stroke-width="10" stroke-linecap="round" stroke-linejoin="round"/><rect x="69" y="145" width="45" height="45" rx="12" fill="none" stroke="#806f64" stroke-width="10" stroke-linecap="round" stroke-linejoin="round"/><rect x="141" y="145" width="45" height="45" rx="12" fill="#b77b82"/>
</symbol>
<symbol id="icon-meals" viewBox="0 0 256 256">
  <rect width="256" height="256" rx="58" fill="#f5eae3"/>
  <rect x="22" y="22" width="212" height="212" rx="48" fill="#fffaf7" stroke="#d8c8be" stroke-width="8"/>
  <path d="M64 125h128c-5 39-31 62-64 62s-59-23-64-62Z" fill="none" stroke="#806f64" stroke-width="10" stroke-linecap="round" stroke-linejoin="round"/><path d="M84 190h88" fill="none" stroke="#b88b55" stroke-width="10" stroke-linecap="round" stroke-linejoin="round"/><path d="M169 84l28-24" fill="none" stroke="#b88b55" stroke-width="8" stroke-linecap="round" stroke-linejoin="round"/>
</symbol>
<symbol id="icon-learning" viewBox="0 0 256 256">
  <rect width="256" height="256" rx="58" fill="#f5eae3"/>
  <rect x="22" y="22" width="212" height="212" rx="48" fill="#fffaf7" stroke="#d8c8be" stroke-width="8"/>
  <path d="M96 125a32 32 0 1 1 64 0c0 18-15 28-22 41h-20c-7-13-22-23-22-41Z" fill="none" stroke="#806f64" stroke-width="10" stroke-linecap="round" stroke-linejoin="round"/><path d="M113 181h30M117 201h22" fill="none" stroke="#7e86a8" stroke-width="10" stroke-linecap="round" stroke-linejoin="round"/><path d="M128 56V42M83 75 73 65M173 75l10-10" fill="none" stroke="#7e86a8" stroke-width="8" stroke-linecap="round" stroke-linejoin="round"/>
</symbol>
<symbol id="icon-skincare" viewBox="0 0 256 256">
  <rect width="256" height="256" rx="58" fill="#f5eae3"/>
  <rect x="22" y="22" width="212" height="212" rx="48" fill="#fffaf7" stroke="#d8c8be" stroke-width="8"/>
  <path d="M105 73h46v32l-10 10v61c0 15-10 25-23 25s-23-10-23-25v-61l10-10V73Z" fill="none" stroke="#806f64" stroke-width="10" stroke-linecap="round" stroke-linejoin="round"/><path d="M108 145h38" fill="none" stroke="#b77b82" stroke-width="10" stroke-linecap="round" stroke-linejoin="round"/><path d="M112 56h32" fill="none" stroke="#b77b82" stroke-width="8" stroke-linecap="round" stroke-linejoin="round"/>
</symbol>
<symbol id="icon-finances" viewBox="0 0 256 256">
  <rect width="256" height="256" rx="58" fill="#f5eae3"/>
  <rect x="22" y="22" width="212" height="212" rx="48" fill="#fffaf7" stroke="#d8c8be" stroke-width="8"/>
  <rect x="59" y="87" width="138" height="92" rx="20" fill="none" stroke="#806f64" stroke-width="10" stroke-linecap="round" stroke-linejoin="round"/><path d="M145 123h58v41h-58c-12 0-22-9-22-20s10-21 22-21Z" fill="#b77b82"/><circle cx="153" cy="144" r="7" fill="#fffaf7"/>
</symbol>
<symbol id="icon-reading" viewBox="0 0 256 256">
  <rect width="256" height="256" rx="58" fill="#f5eae3"/>
  <rect x="22" y="22" width="212" height="212" rx="48" fill="#fffaf7" stroke="#d8c8be" stroke-width="8"/>
  <path d="M63 82h48c13 0 17 8 17 19v88c0-11-8-18-20-18H63V82Z" fill="none" stroke="#806f64" stroke-width="10" stroke-linecap="round" stroke-linejoin="round"/><path d="M193 82h-48c-13 0-17 8-17 19v88c0-11 8-18 20-18h45V82Z" fill="none" stroke="#806f64" stroke-width="10" stroke-linecap="round" stroke-linejoin="round"/><path d="M160 88v44l14-10 14 10V88" fill="none" stroke="#7b5a88" stroke-width="8" stroke-linecap="round" stroke-linejoin="round"/>
</symbol>
<symbol id="icon-events" viewBox="0 0 256 256">
  <rect width="256" height="256" rx="58" fill="#f5eae3"/>
  <rect x="22" y="22" width="212" height="212" rx="48" fill="#fffaf7" stroke="#d8c8be" stroke-width="8"/>
  <rect x="62" y="79" width="132" height="113" rx="18" fill="none" stroke="#806f64" stroke-width="10" stroke-linecap="round" stroke-linejoin="round"/><path d="M62 113h132" fill="none" stroke="#b88b55" stroke-width="10" stroke-linecap="round" stroke-linejoin="round"/><path d="M95 60v32M161 60v32" fill="none" stroke="#806f64" stroke-width="10" stroke-linecap="round" stroke-linejoin="round"/><circle cx="99" cy="145" r="8" fill="#b88b55"/><circle cx="128" cy="145" r="8" fill="#b88b55"/><circle cx="157" cy="145" r="8" fill="#b88b55"/>
</symbol>
<symbol id="icon-fitness" viewBox="0 0 256 256">
  <rect width="256" height="256" rx="58" fill="#f5eae3"/>
  <rect x="22" y="22" width="212" height="212" rx="48" fill="#fffaf7" stroke="#d8c8be" stroke-width="8"/>
  <path d="M54 139h38l17-43 31 82 23-55h39" fill="none" stroke="#b77b82" stroke-width="10" stroke-linecap="round" stroke-linejoin="round"/><path d="M70 190h116" fill="none" stroke="#806f64" stroke-width="10" stroke-linecap="round" stroke-linejoin="round"/>
</symbol>
<symbol id="icon-beauty" viewBox="0 0 256 256">
  <rect width="256" height="256" rx="58" fill="#f5eae3"/>
  <rect x="22" y="22" width="212" height="212" rx="48" fill="#fffaf7" stroke="#d8c8be" stroke-width="8"/>
  <circle cx="128" cy="125" r="54" fill="none" stroke="#806f64" stroke-width="10" stroke-linecap="round" stroke-linejoin="round"/><path d="M91 163c20 19 54 19 74 0" fill="none" stroke="#b77b82" stroke-width="10" stroke-linecap="round" stroke-linejoin="round"/><circle cx="128" cy="116" r="25" fill="#b77b82" opacity="0.22"/><path d="M180 70l10-18M194 85l18-8" fill="none" stroke="#b77b82" stroke-width="8" stroke-linecap="round" stroke-linejoin="round"/>
</symbol>
<symbol id="icon-body-comp" viewBox="0 0 256 256">
  <rect width="256" height="256" rx="58" fill="#f5eae3"/>
  <rect x="22" y="22" width="212" height="212" rx="48" fill="#fffaf7" stroke="#d8c8be" stroke-width="8"/>
  <path d="M69 93c28-25 91-25 119 0 19 17 13 43-15 55-27 12-63 11-90-1-26-12-32-37-14-54Z" fill="none" stroke="#806f64" stroke-width="10" stroke-linecap="round" stroke-linejoin="round"/><path d="M91 112v20M113 104v25M136 101v27M159 104v25" fill="none" stroke="#8a766e" stroke-width="8" stroke-linecap="round" stroke-linejoin="round"/><path d="M84 180h88" fill="none" stroke="#806f64" stroke-width="10" stroke-linecap="round" stroke-linejoin="round"/>
</symbol>
<symbol id="icon-vlog" viewBox="0 0 256 256">
  <rect width="256" height="256" rx="58" fill="#f5eae3"/>
  <rect x="22" y="22" width="212" height="212" rx="48" fill="#fffaf7" stroke="#d8c8be" stroke-width="8"/>
  <rect x="61" y="78" width="134" height="101" rx="22" fill="none" stroke="#806f64" stroke-width="10" stroke-linecap="round" stroke-linejoin="round"/><path d="M117 107v43l39-22-39-21Z" fill="#9a6f86"/><path d="M92 197h72" fill="none" stroke="#9a6f86" stroke-width="8" stroke-linecap="round" stroke-linejoin="round"/>
</symbol>
<symbol id="icon-products" viewBox="0 0 256 256">
  <rect width="256" height="256" rx="58" fill="#f5eae3"/>
  <rect x="22" y="22" width="212" height="212" rx="48" fill="#fffaf7" stroke="#d8c8be" stroke-width="8"/>
  <path d="M105 63h46v30l14 18v76c0 14-10 24-24 24h-26c-14 0-24-10-24-24v-76l14-18V63Z" fill="none" stroke="#806f64" stroke-width="10" stroke-linecap="round" stroke-linejoin="round"/><path d="M100 142h56" fill="none" stroke="#b77b82" stroke-width="10" stroke-linecap="round" stroke-linejoin="round"/><path d="M111 47h34" fill="none" stroke="#b77b82" stroke-width="8" stroke-linecap="round" stroke-linejoin="round"/>
</symbol>
<symbol id="icon-products-library" viewBox="0 0 256 256">
  <rect width="256" height="256" rx="58" fill="#f5eae3"/>
  <rect x="22" y="22" width="212" height="212" rx="48" fill="#fffaf7" stroke="#d8c8be" stroke-width="8"/>
  <path d="M62 189h132" fill="none" stroke="#b77b82" stroke-width="10" stroke-linecap="round" stroke-linejoin="round"/><rect x="74" y="91" width="40" height="78" rx="12" fill="none" stroke="#806f64" stroke-width="10" stroke-linecap="round" stroke-linejoin="round"/><rect x="133" y="73" width="48" height="96" rx="12" fill="none" stroke="#806f64" stroke-width="10" stroke-linecap="round" stroke-linejoin="round"/><path d="M82 129h24M142 116h30" fill="none" stroke="#b77b82" stroke-width="8" stroke-linecap="round" stroke-linejoin="round"/>
</symbol>
<symbol id="icon-progress" viewBox="0 0 256 256">
  <rect width="256" height="256" rx="58" fill="#f5eae3"/>
  <rect x="22" y="22" width="212" height="212" rx="48" fill="#fffaf7" stroke="#d8c8be" stroke-width="8"/>
  <path d="M67 184h128" fill="none" stroke="#806f64" stroke-width="10" stroke-linecap="round" stroke-linejoin="round"/><path d="M76 165l34-36 31 20 44-63" fill="none" stroke="#b77b82" stroke-width="10" stroke-linecap="round" stroke-linejoin="round"/><path d="M166 87h21v21" fill="none" stroke="#b77b82" stroke-width="10" stroke-linecap="round" stroke-linejoin="round"/>
</symbol>
<symbol id="icon-treatments" viewBox="0 0 256 256">
  <rect width="256" height="256" rx="58" fill="#f5eae3"/>
  <rect x="22" y="22" width="212" height="212" rx="48" fill="#fffaf7" stroke="#d8c8be" stroke-width="8"/>
  <path d="M128 57l14 43 43 14-43 14-14 43-14-43-43-14 43-14 14-43Z" fill="none" stroke="#806f64" stroke-width="10" stroke-linecap="round" stroke-linejoin="round"/><path d="M184 67l6 18 18 6-18 6-6 18-6-18-18-6 18-6 6-18Z" fill="#b77b82"/>
</symbol>
<symbol id="icon-skincare-routine" viewBox="0 0 256 256">
  <rect width="256" height="256" rx="58" fill="#f5eae3"/>
  <rect x="22" y="22" width="212" height="212" rx="48" fill="#fffaf7" stroke="#d8c8be" stroke-width="8"/>
  <path d="M78 85h98M78 128h98M78 171h98" fill="none" stroke="#806f64" stroke-width="10" stroke-linecap="round" stroke-linejoin="round"/><circle cx="58" cy="85" r="9" fill="#b77b82"/><circle cx="58" cy="128" r="9" fill="#b77b82"/><circle cx="58" cy="171" r="9" fill="#b77b82"/><path d="M183 55c-18 9-24 31-12 47 9 12 25 16 39 9-8 17-29 26-49 18-19-9-29-30-20-49 7-16 24-26 42-25Z" fill="#b77b82" opacity="0.62"/>
</symbol></defs>
  <text x="452" y="34" text-anchor="middle" font-family="Arial, sans-serif" font-size="22" font-weight="700" fill="#806f64">Wellness OS favicon direction: warm icon silhouettes</text>
  <text x="452" y="56" text-anchor="middle" font-family="Arial, sans-serif" font-size="13" font-weight="600" fill="#a39289">Dark pink accent pass - preview only, not wired into the app yet</text>
  <use href="#icon-wellness" x="74" y="72" width="82" height="82"/>
<use href="#icon-wellness" x="154" y="119" width="22" height="22"/>
<text x="115" y="184" text-anchor="middle" font-family="Arial, sans-serif" font-size="14" font-weight="700" fill="#806f64">Wellness</text>
<text x="115" y="204" text-anchor="middle" font-family="Arial, sans-serif" font-size="10" font-weight="600" fill="#a39289">82px + 22px</text>
<use href="#icon-audio-pilot" x="242" y="72" width="82" height="82"/>
<use href="#icon-audio-pilot" x="322" y="119" width="22" height="22"/>
<text x="283" y="184" text-anchor="middle" font-family="Arial, sans-serif" font-size="14" font-weight="700" fill="#806f64">Audio Pilot</text>
<text x="283" y="204" text-anchor="middle" font-family="Arial, sans-serif" font-size="10" font-weight="600" fill="#a39289">82px + 22px</text>
<use href="#icon-goals" x="410" y="72" width="82" height="82"/>
<use href="#icon-goals" x="490" y="119" width="22" height="22"/>
<text x="451" y="184" text-anchor="middle" font-family="Arial, sans-serif" font-size="14" font-weight="700" fill="#806f64">Goals</text>
<text x="451" y="204" text-anchor="middle" font-family="Arial, sans-serif" font-size="10" font-weight="600" fill="#a39289">82px + 22px</text>
<use href="#icon-dashboard" x="578" y="72" width="82" height="82"/>
<use href="#icon-dashboard" x="658" y="119" width="22" height="22"/>
<text x="619" y="184" text-anchor="middle" font-family="Arial, sans-serif" font-size="14" font-weight="700" fill="#806f64">Dashboard</text>
<text x="619" y="204" text-anchor="middle" font-family="Arial, sans-serif" font-size="10" font-weight="600" fill="#a39289">82px + 22px</text>
<use href="#icon-meals" x="746" y="72" width="82" height="82"/>
<use href="#icon-meals" x="826" y="119" width="22" height="22"/>
<text x="787" y="184" text-anchor="middle" font-family="Arial, sans-serif" font-size="14" font-weight="700" fill="#806f64">Meals</text>
<text x="787" y="204" text-anchor="middle" font-family="Arial, sans-serif" font-size="10" font-weight="600" fill="#a39289">82px + 22px</text>
<use href="#icon-learning" x="74" y="228" width="82" height="82"/>
<use href="#icon-learning" x="154" y="275" width="22" height="22"/>
<text x="115" y="340" text-anchor="middle" font-family="Arial, sans-serif" font-size="14" font-weight="700" fill="#806f64">Learn</text>
<text x="115" y="360" text-anchor="middle" font-family="Arial, sans-serif" font-size="10" font-weight="600" fill="#a39289">82px + 22px</text>
<use href="#icon-skincare" x="242" y="228" width="82" height="82"/>
<use href="#icon-skincare" x="322" y="275" width="22" height="22"/>
<text x="283" y="340" text-anchor="middle" font-family="Arial, sans-serif" font-size="14" font-weight="700" fill="#806f64">Skincare</text>
<text x="283" y="360" text-anchor="middle" font-family="Arial, sans-serif" font-size="10" font-weight="600" fill="#a39289">82px + 22px</text>
<use href="#icon-finances" x="410" y="228" width="82" height="82"/>
<use href="#icon-finances" x="490" y="275" width="22" height="22"/>
<text x="451" y="340" text-anchor="middle" font-family="Arial, sans-serif" font-size="14" font-weight="700" fill="#806f64">Finances</text>
<text x="451" y="360" text-anchor="middle" font-family="Arial, sans-serif" font-size="10" font-weight="600" fill="#a39289">82px + 22px</text>
<use href="#icon-reading" x="578" y="228" width="82" height="82"/>
<use href="#icon-reading" x="658" y="275" width="22" height="22"/>
<text x="619" y="340" text-anchor="middle" font-family="Arial, sans-serif" font-size="14" font-weight="700" fill="#806f64">Reading</text>
<text x="619" y="360" text-anchor="middle" font-family="Arial, sans-serif" font-size="10" font-weight="600" fill="#a39289">82px + 22px</text>
<use href="#icon-events" x="746" y="228" width="82" height="82"/>
<use href="#icon-events" x="826" y="275" width="22" height="22"/>
<text x="787" y="340" text-anchor="middle" font-family="Arial, sans-serif" font-size="14" font-weight="700" fill="#806f64">Events</text>
<text x="787" y="360" text-anchor="middle" font-family="Arial, sans-serif" font-size="10" font-weight="600" fill="#a39289">82px + 22px</text>
<use href="#icon-fitness" x="74" y="384" width="82" height="82"/>
<use href="#icon-fitness" x="154" y="431" width="22" height="22"/>
<text x="115" y="496" text-anchor="middle" font-family="Arial, sans-serif" font-size="14" font-weight="700" fill="#806f64">Fitness</text>
<text x="115" y="516" text-anchor="middle" font-family="Arial, sans-serif" font-size="10" font-weight="600" fill="#a39289">82px + 22px</text>
<use href="#icon-beauty" x="242" y="384" width="82" height="82"/>
<use href="#icon-beauty" x="322" y="431" width="22" height="22"/>
<text x="283" y="496" text-anchor="middle" font-family="Arial, sans-serif" font-size="14" font-weight="700" fill="#806f64">Beauty</text>
<text x="283" y="516" text-anchor="middle" font-family="Arial, sans-serif" font-size="10" font-weight="600" fill="#a39289">82px + 22px</text>
<use href="#icon-body-comp" x="410" y="384" width="82" height="82"/>
<use href="#icon-body-comp" x="490" y="431" width="22" height="22"/>
<text x="451" y="496" text-anchor="middle" font-family="Arial, sans-serif" font-size="14" font-weight="700" fill="#806f64">Body Comp</text>
<text x="451" y="516" text-anchor="middle" font-family="Arial, sans-serif" font-size="10" font-weight="600" fill="#a39289">82px + 22px</text>
<use href="#icon-vlog" x="578" y="384" width="82" height="82"/>
<use href="#icon-vlog" x="658" y="431" width="22" height="22"/>
<text x="619" y="496" text-anchor="middle" font-family="Arial, sans-serif" font-size="14" font-weight="700" fill="#806f64">Vlog</text>
<text x="619" y="516" text-anchor="middle" font-family="Arial, sans-serif" font-size="10" font-weight="600" fill="#a39289">82px + 22px</text>
<use href="#icon-products" x="746" y="384" width="82" height="82"/>
<use href="#icon-products" x="826" y="431" width="22" height="22"/>
<text x="787" y="496" text-anchor="middle" font-family="Arial, sans-serif" font-size="14" font-weight="700" fill="#806f64">Products</text>
<text x="787" y="516" text-anchor="middle" font-family="Arial, sans-serif" font-size="10" font-weight="600" fill="#a39289">82px + 22px</text>
<use href="#icon-products-library" x="74" y="540" width="82" height="82"/>
<use href="#icon-products-library" x="154" y="587" width="22" height="22"/>
<text x="115" y="652" text-anchor="middle" font-family="Arial, sans-serif" font-size="14" font-weight="700" fill="#806f64">Shelf</text>
<text x="115" y="672" text-anchor="middle" font-family="Arial, sans-serif" font-size="10" font-weight="600" fill="#a39289">82px + 22px</text>
<use href="#icon-progress" x="242" y="540" width="82" height="82"/>
<use href="#icon-progress" x="322" y="587" width="22" height="22"/>
<text x="283" y="652" text-anchor="middle" font-family="Arial, sans-serif" font-size="14" font-weight="700" fill="#806f64">Progress</text>
<text x="283" y="672" text-anchor="middle" font-family="Arial, sans-serif" font-size="10" font-weight="600" fill="#a39289">82px + 22px</text>
<use href="#icon-treatments" x="410" y="540" width="82" height="82"/>
<use href="#icon-treatments" x="490" y="587" width="22" height="22"/>
<text x="451" y="652" text-anchor="middle" font-family="Arial, sans-serif" font-size="14" font-weight="700" fill="#806f64">Treatments</text>
<text x="451" y="672" text-anchor="middle" font-family="Arial, sans-serif" font-size="10" font-weight="600" fill="#a39289">82px + 22px</text>
<use href="#icon-skincare-routine" x="578" y="540" width="82" height="82"/>
<use href="#icon-skincare-routine" x="658" y="587" width="22" height="22"/>
<text x="619" y="652" text-anchor="middle" font-family="Arial, sans-serif" font-size="14" font-weight="700" fill="#806f64">Routine</text>
<text x="619" y="672" text-anchor="middle" font-family="Arial, sans-serif" font-size="10" font-weight="600" fill="#a39289">82px + 22px</text>
</svg>