<svg xmlns="http://www.w3.org/2000/svg" viewBox="0 0 1200 406" role="img" aria-labelledby="title desc">
  <title id="title">Today's Skincare Routine</title>
  <desc id="desc">A soft blush banner with hand-lettered skincare title and floral line art.</desc>
  <defs>
    <linearGradient id="bg" x1="0%" y1="0%" x2="100%" y2="100%">
      <stop offset="0%" stop-color="#f7ece5"/>
      <stop offset="100%" stop-color="#f4e6de"/>
    </linearGradient>
    <filter id="shadow" x="-20%" y="-20%" width="140%" height="140%">
      <feDropShadow dx="0" dy="2" stdDeviation="4" flood-color="#c7a6a1" flood-opacity="0.18"/>
    </filter>
    <style>
      .title {
        font-family: "Brush Script MT", "Segoe Script", cursive;
        font-size: 122px;
        fill: #b99693;
        letter-spacing: 1px;
      }
      .line {
        fill: none;
        stroke: #c4a6a1;
        stroke-width: 4;
        stroke-linecap: round;
        stroke-linejoin: round;
      }
      .thin {
        stroke-width: 3;
      }
    </style>
  </defs>

  <rect width="1200" height="406" fill="url(#bg)"/>

  <text class="title" x="110" y="150" filter="url(#shadow)">Today's Skincare Routine</text>

  <g transform="translate(600 270)">
    <path class="line thin" d="M-245 18c-24-8-44-19-63-37-7-6-14-13-23-16 17 25 21 45 18 69"/>
    <path class="line thin" d="M245 18c24-8 44-19 63-37 7-6 14-13 23-16-17 25-21 45-18 69"/>

    <g transform="translate(-110 0)">
      <path class="line" d="M0 10c-32 0-56 24-56 56 0 19 9 35 23 45-2-10-3-20-3-29 0-34 20-63 48-72-4 0-8 0-12 0z"/>
      <path class="line" d="M0 10c32 0 56 24 56 56 0 19-9 35-23 45 2-10 3-20 3-29 0-34-20-63-48-72 4 0 8 0 12 0z"/>
      <path class="line thin" d="M-8 20c0 42 6 78 8 116 2-38 8-74 8-116"/>
      <path class="line thin" d="M0 96c-15-2-29 5-40 18"/>
      <path class="line thin" d="M0 88c17-4 32 2 45 14"/>
    </g>

    <g transform="translate(0 -8)">
      <path class="line" d="M0 0c-36 0-64 28-64 64 0 22 10 40 28 52-2-12-4-24-4-34 0-39 23-72 56-82-5 0-10 0-16 0z"/>
      <path class="line" d="M0 0c36 0 64 28 64 64 0 22-10 40-28 52 2-12 4-24 4-34 0-39-23-72-56-82 5 0 10 0 16 0z"/>
      <path class="line thin" d="M-9 10c0 48 7 88 9 131 2-43 9-83 9-131"/>
      <path class="line thin" d="M0 108c-18-3-34 5-48 21"/>
      <path class="line thin" d="M0 96c20-4 39 2 56 18"/>
    </g>

    <g transform="translate(122 4)">
      <path class="line" d="M0 8c-28 0-49 21-49 49 0 17 8 32 20 41-2-9-3-17-3-24 0-30 18-55 42-63-3-1-6-3-10-3z"/>
      <path class="line" d="M0 8c28 0 49 21 49 49 0 17-8 32-20 41 2-9 3-17 3-24 0-30-18-55-42-63 3-1 6-3 10-3z"/>
      <path class="line thin" d="M-7 16c0 36 5 67 7 99 2-32 7-63 7-99"/>
      <path class="line thin" d="M0 78c-13-2-24 4-34 14"/>
      <path class="line thin" d="M0 70c14-3 27 1 38 12"/>
    </g>
  </g>
</svg>
